<svg xmlns="http://www.w3.org/2000/svg" viewBox="0 0 16 16">
    <path d="M14.938 2.91h-.774v-.508a.841.841 0 0 0-.84-.84h-.676V.926a.84.84 0 0 0-.835-.84H1.043a.841.841 0 0 0-.84.84v12.933a2.04 2.04 0 0 0 2.035 2.036H14.04c.961 0 1.738-.965 1.738-2.153V3.75a.839.839 0 0 0-.84-.84Zm-12.7 12.633a1.686 1.686 0 0 1-1.683-1.684V.926c0-.27.218-.489.488-.489h10.77c.265 0 .484.22.484.489v12.816c0 .754.316 1.414.789 1.801Zm13.188-1.8c0 .991-.621 1.8-1.387 1.8s-1.39-.809-1.39-1.8V1.913h.675c.27 0 .489.219.489.488v11.47a.176.176 0 0 0 .351-.001V3.258h.774c.269 0 .488.222.488.492Zm0 0"/>
    <path d="M6.352 10.828h-4.16a.497.497 0 0 1-.497-.496V6.125c0-.273.223-.496.496-.496h4.16c.274 0 .493.223.493.496v4.207a.493.493 0 0 1-.492.496ZM2.192 5.98a.144.144 0 0 0-.145.145v4.207c0 .082.062.145.144.145h4.16a.144.144 0 0 0 .145-.145V6.125a.147.147 0 0 0-.144-.145Zm8.742 0H8.227a.178.178 0 0 1-.176-.175c0-.098.082-.176.176-.176h2.707c.097 0 .175.078.175.176a.175.175 0 0 1-.175.175Zm0 1.614H8.227a.177.177 0 0 1-.176-.172c0-.098.082-.176.176-.176h2.707a.174.174 0 1 1 0 .348Zm0 1.616H8.227a.178.178 0 0 1-.176-.175c0-.098.082-.176.176-.176h2.707c.097 0 .175.079.175.176a.175.175 0 0 1-.175.176Zm0 1.618H8.227a.178.178 0 0 1-.176-.176c0-.097.082-.175.176-.175h2.707a.175.175 0 1 1 0 .352Zm0 1.617H1.87a.175.175 0 0 1-.176-.175c0-.098.078-.176.176-.176h9.063c.097 0 .175.078.175.176a.175.175 0 0 1-.175.175Zm0 1.614H1.87a.175.175 0 0 1-.176-.176c0-.094.078-.172.176-.172h9.063c.097 0 .175.078.175.172a.175.175 0 0 1-.175.176ZM3.516 4.41a.17.17 0 0 1-.141-.074L2.047 2.55v1.683a.178.178 0 0 1-.176.176.178.178 0 0 1-.176-.176V2.02c0-.075.047-.145.121-.168a.178.178 0 0 1 .196.062l1.328 1.79V2.02c0-.098.078-.176.176-.176.097 0 .175.078.175.176v2.214c0 .075-.05.141-.12.164a.153.153 0 0 1-.055.012ZM5.594 3.3a.178.178 0 0 0 .176-.175.177.177 0 0 0-.176-.172h-.942v-.758h.942a.178.178 0 0 0 .176-.175.178.178 0 0 0-.176-.176H4.477a.175.175 0 0 0-.176.176v2.214c0 .094.078.176.176.176h1.117a.18.18 0 0 0 .176-.176.178.178 0 0 0-.176-.175h-.942V3.3Zm1.34 1.11h-.008a.179.179 0 0 1-.164-.137L6.246 2.06a.177.177 0 0 1 .133-.211.18.18 0 0 1 .21.132l.372 1.606.535-1.621a.172.172 0 0 1 .168-.121c.078 0 .14.047.168.12l.535 1.622.371-1.606a.18.18 0 0 1 .211-.132.18.18 0 0 1 .133.21l-.52 2.215a.17.17 0 0 1-.16.137.179.179 0 0 1-.175-.12l-.563-1.708-.562 1.707a.181.181 0 0 1-.168.121Zm3.449 0h-.828a.178.178 0 0 1-.176-.176c0-.097.078-.175.176-.175h.828a.376.376 0 0 0 .375-.38.378.378 0 0 0-.375-.378h-.274a.729.729 0 1 1 0-1.457h.637c.098 0 .176.078.176.176a.175.175 0 0 1-.176.175h-.637a.38.38 0 0 0 0 .758h.274a.728.728 0 0 1 0 1.457Zm0 0"/>
</svg>
